<?xml version="1.0" encoding="UTF-8"?>
<svg width="22px" height="22px" viewBox="0 0 22 22" version="1.1" xmlns="http://www.w3.org/2000/svg" xmlns:xlink="http://www.w3.org/1999/xlink">
    <!-- Generator: Sketch 55.1 (78136) - https://sketchapp.com -->
    <title>facebook-seeklogo.com</title>
    <desc>Created with Sketch.</desc>
    <g id="Source" stroke="none" stroke-width="1" fill="none" fill-rule="evenodd">
        <g id="Main-Desktop" transform="translate(-1096.000000, -6426.000000)">
            <g id="facebook-seeklogo.com" transform="translate(1096.000000, 6426.000000)">
                <path d="M20.7857891,22 C21.4562734,22 22,21.4563615 22,20.7857938 L22,1.21420619 C22,0.543552564 21.4562734,0 20.7857891,0 L1.21421094,0 C0.54346875,0 0,0.543552564 0,1.21420619 L0,20.7857938 C0,21.4563615 0.54346875,22 1.21421094,22 L20.7857891,22" id="Path" fill="#395185"></path>
                <path d="M15.4907944,22 L15.4907944,13.3332214 L18.4391579,13.3332214 L18.8805663,9.95566312 L15.4907944,9.95566312 L15.4907944,7.7991313 C15.4907944,6.82122612 15.7660766,6.15480638 17.1873195,6.15480638 L19,6.15401958 L19,3.13314407 C18.6863537,3.0919682 17.6103875,3 16.3586377,3 C13.745096,3 11.9558946,4.57403744 11.9558946,7.46474123 L11.9558946,9.95566312 L9,9.95566312 L9,13.3332214 L11.9558946,13.3332214 L11.9558946,22 L15.4907944,22" id="Path" fill="#FFFFFF"></path>
            </g>
        </g>
    </g>
</svg>