<?xml version="1.0" encoding="UTF-8"?>
<svg width="13px" height="13px" viewBox="0 0 13 13" version="1.1" xmlns="http://www.w3.org/2000/svg" xmlns:xlink="http://www.w3.org/1999/xlink">
    <!-- Generator: Sketch 55.1 (78136) - https://sketchapp.com -->
    <title>increase-size-option</title>
    <desc>Created with Sketch.</desc>
    <g id="Source" stroke="none" stroke-width="1" fill="none" fill-rule="evenodd" opacity="0.396391369">
        <g id="Main-Desktop" transform="translate(-101.000000, -2058.000000)" fill="#000000">
            <g id="Group-16" transform="translate(101.000000, 2055.000000)">
                <g id="increase-size-option" transform="translate(0.000000, 3.000000)">
                    <path d="M5.01461337,7.07944107 C4.96164338,7.02649891 4.90068474,7 4.83182097,7 C4.76292935,7 4.70197072,7.02647108 4.64902856,7.07944107 L2.01063297,9.71783666 L0.866280688,8.57334521 C0.765601514,8.47286088 0.646523409,8.42245171 0.508684518,8.42245171 C0.370845627,8.42245171 0.251628347,8.47286088 0.150977008,8.57334521 C0.0502978344,8.67413572 0,8.79338084 0,8.93113622 L0,12.4914268 C0,12.6291544 0.0502978344,12.748316 0.150977008,12.849023 C0.251711852,12.9495908 0.370929132,13 0.508684518,13 L4.06894728,13 C4.20670267,13 4.32586428,12.9495908 4.42654345,12.849023 C4.52716695,12.7483438 4.57752046,12.6291822 4.57752046,12.4914268 C4.57752046,12.3536714 4.52716695,12.2344263 4.42654345,12.1336358 L3.28219117,10.9895062 L5.92058676,8.35094361 C5.97352892,8.29797361 6,8.23720982 6,8.1682347 C6,8.09925959 5.97347325,8.03852363 5.92058676,7.98535879 L5.01461337,7.07944107 Z" id="Path"></path>
                    <path d="M12.8492149,0.15097981 C12.7486174,0.0502987678 12.6293701,0 12.4916121,0 L8.93125553,0 C8.79352543,0 8.67441728,0.0502987678 8.57365273,0.15097981 C8.4730552,0.251605181 8.42275643,0.370824673 8.42275643,0.508582616 C8.42275643,0.646340558 8.4730552,0.765587886 8.57365273,0.866185422 L9.71785922,2.01055894 L7.07944255,4.64900349 C7.02652724,4.70205797 7,4.76293423 7,4.83179929 C7,4.90066434 7.02652724,4.96165194 7.07944255,5.01459509 L7.98554407,5.92058529 C8.03848721,5.97355626 8.09927997,6 8.16822853,6 C8.23717709,6 8.29796984,5.97355626 8.35091298,5.92058529 L10.9895523,3.28214074 L12.1337031,4.42643075 C12.2344677,4.52708395 12.3537429,4.5775219 12.4915008,4.5775219 C12.6292587,4.5775219 12.7483947,4.52708395 12.8491036,4.42643075 C12.9497011,4.32583321 13,4.20658588 13,4.06882794 L13,0.508499109 C13.0000834,0.370629825 12.9500908,0.251633017 12.8492149,0.15097981 Z" id="Path"></path>
                </g>
            </g>
        </g>
    </g>
</svg>