<?xml version="1.0" encoding="UTF-8"?>
<svg width="9px" height="13px" viewBox="0 0 9 13" version="1.1" xmlns="http://www.w3.org/2000/svg" xmlns:xlink="http://www.w3.org/1999/xlink">
    <!-- Generator: Sketch 55.1 (78136) - https://sketchapp.com -->
    <title>map-marker</title>
    <desc>Created with Sketch.</desc>
    <g id="Source" stroke="none" stroke-width="1" fill="none" fill-rule="evenodd" opacity="0.4">
        <g id="Main-Desktop" transform="translate(-242.000000, -2058.000000)" fill="#000000" fill-rule="nonzero">
            <g id="Group-16" transform="translate(101.000000, 2055.000000)">
                <g id="map-marker" transform="translate(145.500000, 9.500000) scale(-1, 1) translate(-145.500000, -9.500000) translate(141.000000, 3.000000)">
                    <path d="M7.68171118,1.26950809 C6.80287251,0.423080431 5.74222002,0 4.50003076,0 C3.25777994,0 2.19725058,0.423169364 1.31835035,1.26950809 C0.439480901,2.11581717 0,3.13708567 0,4.33331357 C0,4.94839876 0.0966636334,5.45332652 0.289960116,5.84830436 L3.49802293,12.3992329 C3.58594374,12.5852792 3.72222715,12.7319878 3.9067808,12.8390919 C4.09136524,12.9463146 4.28909471,13 4.50009233,13 C4.71102839,13 4.90885021,12.9463146 5.09340386,12.8390919 C5.27798831,12.7319878 5.41704233,12.5852792 5.51081221,12.3992329 L8.70988592,5.84830436 C8.90327476,5.45332652 9,4.94836912 9,4.33331357 C9.00015388,3.13708567 8.56076534,2.11593575 7.68171118,1.26950809 Z M6.09079401,5.86523113 C5.65140546,6.28831156 5.12117157,6.49994071 4.50003076,6.49994071 C3.87888996,6.49994071 3.34865607,6.28831156 2.90914438,5.86523113 C2.46969426,5.44200248 2.24992303,4.9314127 2.24992303,4.33328393 C2.24992303,3.73521444 2.46969426,3.22453573 2.90914438,2.80142565 C3.34865607,2.37825629 3.87898231,2.16662714 4.50003076,2.16662714 C5.12117157,2.16662714 5.65140546,2.37825629 6.09079401,2.80142565 C6.53021334,3.22450608 6.74998458,3.73521444 6.74998458,4.33328393 C6.74998458,4.93135341 6.53024413,5.44191355 6.09079401,5.86523113 Z" id="Shape"></path>
                </g>
            </g>
        </g>
    </g>
</svg>